<!DOCTYPE svg PUBLIC "-//W3C//DTD SVG 20010904//EN" "http://www.w3.org/TR/2001/REC-SVG-20010904/DTD/svg10.dtd">
<svg version="1.0" xmlns="http://www.w3.org/2000/svg" width="400px" height="200px" viewBox="0 0 4000 2000" preserveAspectRatio="xMidYMid meet">
    <style>
        /* <![CDATA[ */
            path{
                -webkit-animation: preload 3s cubic-bezier(0.77,0,0.175,1) both;
                stroke-dasharray: 7000px;
                stroke-width: 22px;
            }
            @-webkit-keyframes preload {
                0% {
                    fill: rgba(255,255,255,0);
                    stroke-dashoffset: 7000px;
                    stroke-width: 22px;
                }

                80% ,100%{
                    fill: rgba(255,255,255,0);
                    stroke-width: 22px;
                }
            }
            @-webkit-keyframes bounce{
                25%{ -webkit-transform:scale(0.92)}
            }
        /* ]]> */
    </style>
    <g>
        <path fill="none" stroke="#0073ae" d="M2110 1770 l0 -99 -67 29 c-75 31 -81 30 -115 -28 l-17 -29 99 -23 100 -22 0 -44 c0 -43 -1 -44 -34 -44 -21 0 -36 6 -40 15 -8 22 -22 19 -62 -12 -33 -27 -33 -28 -14
            -43 11 -8 35 -54 54 -103 l35 -87 -59 0 c-54 0 -70 -8 -70 -35 0 -2 32 -5 72 -7 l72 -3 19 -71 19 -72 44 15 c56 19 72 38 46 52 -16 8 -42 57 -42 77 0 2 12 4 27 4 15 0 39 -11 55 -26 l27 -27 36 27 c19 15 35 36 35 46 0 18 -9 20
            -101 22 l-100 3 -39 93 -38 92 29 0 29 0 0 -66 0 -67 41 6 c49 6 69 21 51 39 -7 7 -12 29 -12 50 0 30 4 38 18 38 11 0 24 -11 30 -25 6 -14 19 -25 27 -25 23 0 61 -93 92 -219 14 -58 26 -107 27 -108 1 -1 25 5 54 14 52 17 70 44
            37 57 -12 4 -65 105 -65 122 0 2 35 4 77 4 65 0 80 -3 100 -22 l23 -21 38 30 c45 36 55 73 20 73 -26 0 -58 19 -104 62 -41 38 -50 23 -25 -41 l19 -51 -83 0 -83 0 -45 63 c-44 63 -44 64 -26 86 11 13 16 27 13 32 -3 5 -36 9 -75
            9 l-69 0 0 34 0 34 73 -19 c86 -22 97 -23 97 -6 0 7 -37 28 -82 48 l-83 35 -3 105 c-3 102 -4 106 -28 118 -52 23 -54 19 -54 -89z
            M2207 1864 c-4 -4 16 -31 43 -61 27 -29 63 -82 80 -116 33 -67 60 -200 60 -296 l0 -53 37 7 c57 10 77 23 62 41 -9 11 -9 28 1 77 28 143 80 236 164 292 50 33 59 55 22 55 -13 0 -35 10 -50 21 l-27 21 -23 -21 c-48 -45 -115 -213
            -117 -291 0 -14 -10 14 -23 62 -26 103 -59 154 -141 220 -57 47 -75 55 -88 42z
            M2870 1654 l0 -215 -57 61 c-74 81 -89 65 -28 -30 58 -89 106 -192 135 -290 13 -41 24 -77 26 -78 5 -7 90 35 103 52 13 15 12 18 -5 22 -11 3 -37 38 -61 84 -39 72 -41 80 -25 89 14 8 15 12 5 22 -8 8 -13 40 -13 81 l0 68 125
            0 125 0 0 -90 0 -90 -47 0 -48 1 -48 75 c-46 71 -70 94 -84 81 -3 -3 11 -43 30 -89 19 -46 43 -117 53 -158 10 -41 19 -76 20 -78 0 -1 22 7 47 18 46 21 60 43 33 53 -7 3 -18 19 -24 36 l-11 31 40 0 39 0 0 -110 c0 -123 -3 -119
            76 -99 44 11 59 34 29 45 -12 5 -15 24 -15 85 0 76 1 79 23 79 15 0 29 -11 40 -30 10 -16 24 -30 31 -30 15 0 96 68 96 81 0 5 -43 9 -95 9 l-95 0 0 90 0 90 38 0 c31 0 43 -6 60 -30 13 -16 28 -30 34 -30 18 0 98 70 98 86 0
            11 -22 14 -115 14 l-115 0 0 140 c0 127 -2 140 -19 150 -11 5 -31 10 -45 10 l-26 0 0 -150 0 -150 -113 0 c-75 0 -117 -4 -125 -12 -9 -9 -12 23 -12 143 l0 156 -25 11 c-56 26 -55 30 -55 -204z
            M808 1806 c-32 -29 -82 -65 -113 -80 -55 -27 -77 -61 -32 -51 60 13 113 25 119 25 8 0 53 -77 63 -108 l7 -24 -109 4 c-102 3 -108 2 -111 -17 -3 -19 2 -20 112 -17 114 3 115 3 132 -23 19 -29 29 -28 81 8 36 24 44 57 14 57 -11 0
            -46 29 -80 66 l-61 67 33 17 c17 9 36 29 41 44 12 31 -3 80 -24 83 -8 1 -41 -21 -72 -51z
            M395 1810 l-26 -41 21 -26 c16 -21 20 -40 20 -109 l0 -84 -63 0 c-60 0 -63 -1 -74 -29 -9 -25 -7 -35 20 -77 39 -63 79 -158 112 -266 14 -49 32 -88 38 -88 21 1 97 39 97 48 0 6 -7 12 -15 15 -8 4 -23 24 -35 47 l-20 40 20 0 c12 0
            32 -12 45 -27 l24 -28 40 40 c23 21 38 42 33 47 -4 4 -47 8 -96 10 l-90 3 -28 48 -27 47 48 0 c38 0 52 -5 71 -25 13 -14 29 -25 35 -25 12 0 75 61 75 73 0 4 -29 7 -65 7 l-65 0 0 55 c0 30 3 55 6 55 3 0 17 -13 30 -30 21 -24 29
            -28 44 -20 17 9 25 -1 70 -92 28 -58 60 -143 72 -193 13 -49 23 -91 24 -92 0 -2 24 4 52 12 47 14 68 38 42 47 -13 4 34 115 68 157 17 21 58 50 100 71 39 19 69 39 68 45 -1 5 -20 13 -41 17 -22 5 -47 16 -57 25 -17 16 -21 14
            -59 -23 -47 -45 -81 -107 -99 -180 l-13 -50 -43 85 c-24 47 -66 112 -94 144 -40 47 -49 64 -44 83 6 24 5 24 -60 24 l-66 0 0 71 c0 53 3 68 13 63 6 -4 31 -21 55 -37 24 -16 50 -26 58 -23 12 5 -5 28 -66 93 -45 49 -87 98 -93 111
            -15 32 -33 27 -62 -18z m15 -345 c0 -47 -3 -55 -18 -55 -20 0 -105 93 -95 104 4 3 30 6 60 6 l53 0 0 -55z
            M1106 1834 c-3 -9 -6 -18 -6 -20 0 -2 32 -4 71 -4 l71 0 -4 -115 c-1 -63 1 -115 5 -115 4 0 24 7 44 15 56 24 78 19 166 -39 133 -88 124 -74 93 -150 -14 -36 -29 -84 -32 -106 l-7 -40 -103 0 -104 0 0 35 0 35 50 0 c28 0 50 -4 50
            -10 0 -15 27 -12 66 6 35 17 45 41 20 50 -9 3 -17 29 -21 67 -10 86 -19 105 -59 124 l-35 16 -29 -31 c-17 -18 -35 -32 -41 -32 -6 0 -11 -6 -11 -13 0 -9 11 -12 37 -9 47 6 63 -15 63 -80 l0 -48 -50 0 c-45 0 -50 2 -50 23 0 42 -29
            129 -54 166 -32 46 -95 96 -106 85 -5 -5 4 -28 21 -53 45 -68 61 -132 66 -279 6 -147 3 -142 75 -106 17 9 60 14 117 14 l89 0 -5 -60 c-6 -67 -5 -68 58 -48 37 11 50 30 29 43 -5 3 -10 19 -10 36 0 28 1 29 50 29 28 0 50 -2 50 -5 0
            -15 -42 -85 -50 -85 -6 0 -10 -7 -10 -15 0 -18 7 -18 51 -4 68 23 89 64 47 93 -22 16 -22 16 -1 16 11 0 28 -11 37 -25 9 -14 25 -25 35 -25 27 0 81 48 81 71 0 18 -9 19 -140 19 -109 0 -140 3 -140 13 0 21 41 137 48 137 4 0 27 -27
            51 -60 24 -33 47 -60 52 -60 4 0 24 9 43 21 35 21 49 49 23 49 -7 0 -37 25 -66 54 -60 61 -60 67 3 101 43 23 57 14 82 -56 27 -74 48 -66 39 15 -5 50 -3 71 10 95 22 44 12 54 -50 49 -45 -4 -52 -2 -48 12 3 10 -2 20 -11 23 -13 5 -16
            22 -16 82 0 41 4 75 9 75 5 0 16 -11 25 -25 21 -32 28 -31 71 6 68 60 74 59 -349 59 -341 0 -385 -2 -390 -16z m284 -104 l0 -80 -40 0 -40 0 0 80 0 80 40 0 40 0 0 -80z m140 0 l0 -80 -40 0 -40 0 0 80 0 80 40 0 40 0 0 -80z m140 0
            l0 -80 -40 0 -40 0 0 80 0 80 40 0 40 0 0 -80z m4 -137 c5 -11 -4 -25 -26 -44 -33 -27 -33 -27 -63 -9 -16 10 -55 30 -85 43 l-55 25 111 1 c95 1 113 -1 118 -16z
            M774 1483 c-3 -21 -16 -55 -27 -76 -31 -56 -12 -64 51 -22 31 21 54 45 58 60 8 34 -19 75 -51 75 -20 0 -25 -6 -31 -37z
            M1149 941 c-16 -16 -29 -39 -29 -51 0 -36 28 -78 70 -103 35 -21 39 -26 25 -37 -9 -8 -15 -29 -15 -55 0 -130 119 -275 226 -275 24 0 46 -4 49 -10 3 -5 15 -10 26 -10 15 0 19 5 15 18 -41 136 -69 256 -77 337 -12 106 -23 137 -61 171
            -39 36 -64 44 -133 44 -60 0 -69 -3 -96 -29z m135 -15 c53 -22 78 -67 84 -148 l5 -70 -92 67 c-106 78 -120 104 -77 142 32 27 36 27 80 9z m62 -248 c27 -26 40 -50 58 -113 13 -44 21 -84 19 -89 -9 -13 -65 3 -90 26 -26 25 -63 116
            -63 156 0 27 15 52 32 52 5 0 24 -15 44 -32z
            M565 866 c-36 -15 -87 -72 -114 -124 -10 -20 -31 -76 -47 -124 -15 -49 -31 -88 -34 -88 -10 0 -52 188 -45 199 3 6 19 8 36 4 24 -5 28 -3 23 11 -3 9 -14 16 -23 16 -9 0 -58 2 -108 3 -51 2 -93 1 -93 -2 1 -15 18 -29 43 -35 35 -8 46
            -33 86 -194 34 -134 37 -158 19 -165 -23 -8 5 -25 55 -32 54 -8 54 -8 32 75 -8 30 -15 60 -15 66 0 43 99 3 124 -49 51 -109 -80 -164 -215 -91 -61 34 -95 72 -109 123 -12 45 -6 66 28 103 27 30 24 58 -7 58 -35 0 -61 -46 -61 -111
            0 -73 10 -98 60 -153 56 -61 125 -90 220 -90 124 -1 191 48 175 130 -8 47 -57 100 -108 117 -23 8 -41 18 -40 23 9 37 78 207 99 241 47 80 107 96 133 35 19 -41 54 -42 59 -1 7 58 -94 90 -173 55z
            M1660 829 c-28 -11 -77 -55 -91 -81 -5 -10 -14 -40 -19 -67 -30 -160 89 -364 238 -407 53 -16 61 -16 121 0 36 9 67 19 70 21 2 3 -1 28 -7 56 -7 28 -12 61 -12 75 0 14 -6 24 -14 24 -9 0 -15 -18 -18 -57 -6 -65 -30 -93 -83 -93 -36 0
            -102 40 -135 82 -62 80 -95 226 -71 315 14 52 60 93 104 93 38 0 90 -30 113 -65 18 -28 44 -34 44 -9 0 30 -43 76 -94 100 -54 25 -104 29 -146 13z
            M653 754 c-9 -23 5 -110 31 -199 13 -44 22 -82 20 -84 -2 -3 -15 6 -29 19 -14 14 -30 20 -40 16 -25 -9 -14 -28 39 -63 47 -32 99 -43 111 -23 3 5 -11 70 -31 144 -21 75 -35 139 -31 143 4 3 20 -6 36 -21 23 -22 30 -24 39
            -13 9 11 6 19 -16 39 -63 58 -116 75 -129 42z
            M1032 758 c-18 -18 -15 -39 19 -166 17 -62 28 -116 25 -119 -10 -10 -86 47 -106 79 -11 18 -24 55 -30 82 -26 123 -28 126 -65 126 -19 0 -35 -3 -35 -7 0 -5 16 -69 35 -143 19 -74 32 -136 30 -138 -2 -2 -18 6 -34 18 -34 24 -61 19
            -39 -8 28 -33 92 -72 121 -72 28 0 29 1 25 40 -2 22 -2 40 -1 40 1 0 26 -18 55 -40 56 -42 97 -51 118 -25 11 13 9 31 -10 98 -38 140 -49 187 -40 187 5 0 22 -11 38 -25 36 -30 42 -31 42 -5 0 24 -84 90 -114 90 -12 0 -27 -5 -34 -12z
            M1987 757 c-62 -45 9 -275 101 -329 17 -10 48 -18 71 -18 32 0 44 5 57 25 34 53 -15 118 -124 165 -51 22 -53 24 -50 58 5 55 27 61 87 22 39 -24 55 -30 63 -22 16 16 -13 46 -77 83 -53 31 -101 37 -128 16z m160 -251 c13 -24 13 -30 1
            -43 -8 -8 -22 -11 -32 -7 -17 6 -47 57 -61 103 l-7 23 42 -23 c23 -13 49 -37 57 -53z
            M2457 763 c-14 -13 -6 -81 18 -164 13 -46 25 -94 25 -107 0 -22 -1 -22 -29 -8 -57 30 -87 78 -112 180 l-23 96 -33 0 c-18 0 -33 -4 -33 -9 0 -6 14 -67 30 -137 17 -70 29 -131 28
            -136 -2 -5 -15 0 -30 11 -32 25 -51 27 -46 4 5 -25 96 -83 130 -83 30 0 30 1 24 40 l-6 39 57 -40 c42 -29 66 -39 88 -37 43 4 43 37 4 174 -18 62 -30 116 -27 120 4 3 22 -6 41 -20 46 -35 60 -16 21 26 -46 47 -107 72 -127 51z
            M2667 763 c-14 -13 -6 -94 18 -187 14 -53 25 -98 25 -101 0 -3 -13 -5 -30 -5 -20 0 -30 -5 -30 -15 0 -10 11 -15 35 -15 33 0 35 -2 46 -46 10 -39 18 -49 47 -61 19 -8 36 -13 38 -11 2 2 -3 28 -11 58 -8 30 -15 56 -15 58 0 1 18 2 40 2
            29 0 40 4 40 15 0 11 -11 15 -43 15 l-44 0 -21 83 c-35 133 -37 147 -18 147 9 0 34 -12 56 -26 23 -16 46 -24 56 -20 23 9 7 26 -70 76 -56 37 -103 50 -119 33z
            M3149 754 c-23 -27 -15 -114 15 -175 50 -100 126 -159 204 -159 23 0 44 -4 47 -10 3 -5 14 -10 24 -10 18 0 17 5 -5 82 -25 84 -55 220 -50 225 1 1 19 -9 39 -23 31 -21 38 -22 43 -10 12 30 -88 99 -134 94 -23 -3 -27 -7 -24 -32 l3 -29
            -42 32 c-48 35 -98 41 -120 15z m125 -65 c34 -26 49 -56 74 -146 l20 -73 -24 0 c-47 0 -84 29 -110 83 -26 57 -33 142 -11 150 20 9 23 8 51 -14z
            M3503 754 c-3 -8 -3 -35 0 -59 11 -78 87 -369 109 -413 29 -60 85 -96 152 -97 46 0 51 2 54 24 5 33 -14 41 -75 34 -53 -6 -53 -6 -67 28 -19 48 -108 430 -102 437 3 3 26 -9 50 -26 51 -36 73 -26 35 15 -57 61 -142 93 -156 57z
            M2910 753 c1 -5 16 -69 34 -143 18 -74 32 -137 30 -139 -3 -3 -18 8 -34 24 -23 22 -33 26 -42 17 -8 -8 -8 -15 3 -28 23 -29 101 -74 127 -74 22 0 24 4 20 38 l-3 37 46 -48 c35 -36 53 -48 70 -45 18 2 24 9 24 27 0 19 -11 30 -50 50 -68
            36 -108 92 -130 183 -9 40 -19 81 -22 91 -3 12 -14 17 -39 17 -19 0 -34 -3 -34 -7z
            M767 313 c-4 -3 -7 -19 -7 -34 0 -46 59 -63 74 -22 13 34 -43 81 -67 56z"/>
    </g>
</svg>